# AST/ASF file generated using VICON BodyLanguage
# -----------------------------------------------
:version 1.10
:name VICON
:units
  mass 1.0
  length 0.45
  angle deg
:documentation
   .ast/.asf automatically generated from VICON data using
   VICON BodyBuilder and BodyLanguage model FoxedUp or BRILLIANT.MOD
:root
   order TX TY TZ RX RY RZ
   axis XYZ
   position 0 0 0  
   orientation 0 0 0 
:bonedata
  begin
     id 1 
     name lhipjoint
     direction 0.645893 -0.654526 0.392961 
     length 2.38111 
     axis 0 0 0  XYZ
  end
  begin
     id 2 
     name lfemur
     direction 0.34202 -0.939693 0  
     length 6.6822  
     axis 0 0 20  XYZ
    dof rx ry rz
    limits (-160.0 20.0)
           (-70.0 70.0)
           (-60.0 70.0)
  end
  begin
     id 3 
     name ltibia
     direction 0.34202 -0.939693 0   
     length 6.93904   
     axis 0 0 20   XYZ
    dof rx
    limits (-10.0 170.0)
  end
  begin
     id 4 
     name lfoot
     direction 0.0694967 -0.190941 0.979138   
     length 2.13616   
     axis -90 7.62852e-016 20   XYZ
    dof rx rz
    limits (-45.0 90.0)
           (-70.0 20.0)
  end
  begin
     id 5 
     name ltoes
     direction 1.535e-011 -4.2202e-011 1   
     length 1.07536   
     axis -90 7.62852e-016 20   XYZ
    dof rx
    limits (-90.0 20.0)
  end
  begin
     id 6 
     name rhipjoint
     direction -0.700219 -0.612087 0.367481   
     length 2.54621  
     axis 0 0 0  XYZ 
  end
  begin
     id 7 
     name rfemur
     direction -0.34202 -0.939693 0   
     length 6.55353   
     axis 0 0 -20   XYZ
    dof rx ry rz
    limits (-160.0 20.0)
           (-70.0 70.0)
           (-70.0 60.0)
  end
  begin
     id 8 
     name rtibia
     direction -0.34202 -0.939693 0   
     length 6.8736   
     axis 0 0 -20   XYZ
    dof rx
    limits (-10.0 170.0)
 end
 begin
     id 9 
     name rfoot
     direction -0.0679995 -0.186827 0.980037   
     length 2.1218  
     axis -90 -7.62852e-016 -20   XYZ
    dof rx rz
    limits (-45.0 90.0)
           (-20.0 70.0)
  end
  begin
     id 10 
     name rtoes
     direction -1.53589e-011 -4.21772e-011 1   
     length 1.06864   
     axis -90 -7.62852e-016 -20   XYZ
    dof rx
    limits (-90.0 20.0)
  end
  begin
     id 11 
     name lowerback
     direction -0.0416607 0.996347 -0.0745409   
     length 2.12205   
     axis 0 0 0   XYZ
    dof rx ry rz
    limits (-20.0 45.0)
           (-30.0 30.0)
           (-30.0 30.0)
  end
  begin
     id 12 
     name upperback
     direction -0.000153993 0.999276 -0.0380568   
     length 2.12759   
     axis 0 0 0   XYZ
    dof rx ry rz
    limits (-20.0 45.0)
           (-30.0 30.0)
           (-30.0 30.0)
  end
  begin
     id 13 
     name thorax
     direction 0.0187671 0.999821 -0.00241421   
     length 2.13704   
     axis 0 0 0   XYZ
    dof rx ry rz
    limits (-20.0 45.0)
           (-30.0 30.0)
           (-30.0 30.0)
  end
  begin
     id 14 
     name lowerneck
     direction 0.0268157 0.964865 0.261374   
     length 1.65253   
     axis 0 0 0   XYZ
    dof rx ry rz
    limits (-20.0 45.0)
           (-30.0 30.0)
           (-30.0 30.0)
  end
  begin
     id 15 
     name upperneck
     direction 0.00263774 0.939908 -0.341418   
     length 1.72375   
     axis 0 0 0   XYZ
    dof rx ry rz
    limits (-20.0 45.0)
           (-30.0 30.0)
           (-30.0 30.0)
  end
  begin
     id 16
     name head
     direction -0.00526001 0.989001 -0.147818  
     length 1.74878  
     axis 0 0 0   XYZ
    dof rx ry rz
    limits (-20.0 45.0)
           (-30.0 30.0)
           (-30.0 30.0)
  end
  begin
     id 17 
     name lclavicle
     direction 0.881214 0.461162 -0.103884  
     length 3.25108  
     axis 0 0 0   XYZ
    dof ry rz
    limits (-20.0 10.0)
           (0.0 20.0)
  end
  begin
     id 18 
     name lhumerus
     direction 1 -4.4899e-011 3.38092e-027   
     length 4.87408   
     axis 180 -30 -90   XYZ
    dof rx ry rz
    limits (-60.0 90.0)
           (-90.0 90.0)
           (-90.0 90.0)
  end
  begin
     id 19
     name lradius
     direction 1 -4.48931e-011 9.96288e-027   
     length 2.76729   
     axis 180 -30 -90   XYZ
    dof rx
    limits (-10.0 170.0)
  end
  begin
     id 20
     name lwrist
     direction 1 -4.4896e-011 1.50617e-026   
     length 1.38364   
     axis -9.31234e-015 90 90   XYZ
    dof ry
    limits (-180.0 0.0)
 end
  begin
     id 21 
     name lhand
     direction 1 -4.49038e-011 3.01286e-026   
     length 0.98922   
     axis -1.92217e-014 90 90   XYZ
    dof rx rz
    limits (-90.0 90.0)
           (-45.0 45.0)
  end
  begin
     id 22 
     name lfingers
     direction 1 -4.49051e-011 6.02588e-026   
     length 0.797535   
     axis -3.84436e-014 90 90   XYZ
    dof rx
    limits (0.0 90.0)
  end
  begin
     id 23
     name lthumb
     direction 0.707107 -6.34901e-011 0.707107   
     length 1.14511   
     axis -90 45 2.19363e-014   XYZ
    dof rx rz
    limits (-45.0 45.0)
           (-45.0 45.0)
  end
  begin
     id 24 
     name rclavicle
     direction -0.893894 0.441652 -0.0767889   
     length 3.29361  
     axis 0 0 0   XYZ 
    dof ry rz
    limits (-10.0 20.0)
           (-20.0 0.0)
  end
  begin
     id 25 
     name rhumerus
     direction -1 -4.48945e-011 8.0491e-028  
     length 4.71404   
     axis 180 30 90   XYZ
    dof rx ry rz
    limits (-90.0 60.0)
           (-90.0 90.0)
           (-90.0 90.0)
  end
  begin
     id 26 
     name rradius
     direction -1 -4.48986e-011 9.27795e-027   
     length 2.83468   
     axis 180 30 90   XYZ
    dof rx
    limits (-10.0 170.0)
  end
  begin
     id 27 
     name rwrist
     direction -1 -4.49029e-011 1.5064e-026   
     length 1.41734   
     axis -9.31234e-015 -90 -90   XYZ
    dof ry
    limits (-180.0 0.0)
  end
  begin
     id 28
     name rhand
     direction -1 -4.48857e-011 3.01165e-026   
     length 0.868195   
     axis -1.92217e-014 -90 -90   XYZ
    dof rx rz
    limits (-90.0 90.0)
           (-45.0 45.0)
  end
  begin
     id 29
     name rfingers
     direction -1 -4.49048e-011 6.02585e-026   
     length 0.699961   
     axis -3.84436e-014 -90 -90   XYZ
    dof rx
    limits (0.0 90.0)
  end
  begin
     id 30
     name rthumb
     direction -0.707107 -6.34854e-011 0.707107   
     length 1.00501   
     axis -90 -45 -2.19363e-014   XYZ
    dof rx rz
    limits (-45.0 45.0)
           (-45.0 45.0)
  end
:hierarchy
  begin
    root lhipjoint rhipjoint lowerback
    lhipjoint lfemur
    lfemur ltibia
    ltibia lfoot
    lfoot ltoes
    rhipjoint rfemur
    rfemur rtibia
    rtibia rfoot
    rfoot rtoes
    lowerback upperback
    upperback thorax
    thorax lowerneck lclavicle rclavicle
    lowerneck upperneck
    upperneck head
    lclavicle lhumerus
    lhumerus lradius
    lradius lwrist
    lwrist lhand lthumb
    lhand lfingers
    rclavicle rhumerus
    rhumerus rradius
    rradius rwrist
    rwrist rhand rthumb
    rhand rfingers
  end

#!OML:ASF H:\ManfredObstacles\Project 1\Capture day 2\Session 1\male.ASF
:FULLY-SPECIFIED
:DEGREES
134
root 2.03996 7.36219 20.2828 -166.205 -0.189969 -180.717
lowerback 47.2468 6.84571 -1.65356
upperback 15.7205 0.783919 2.56023
thorax -3.87532 -2.45885 3.42251
lowerneck -31.4482 1.37255 2.19759
upperneck 19.573 0.953782 -0.261423
head 11.5166 0.563816 -0.276441
rclavicle 6.36111e-015 9.44227e-015
rhumerus 4.71993 16.6648 -74.0545
rradius 57.123
rwrist 31.2833
rhand -40.2164 -0.383547
rfingers 7.12502
rthumb -13.1764 -29.9472
lclavicle 6.36111e-015 9.44227e-015
lhumerus 4.75848 -13.4337 76.9124
lradius 57.4745
lwrist -34.6934
lhand -38.4404 7.22476
lfingers 7.12502
lthumb -11.464 36.8913
rfemur -98.7459 4.01885 28.7359
rtibia 143.203
rfoot -43.1461 -28.8016
rtoes -22.037
lfemur -98.5543 13.2039 -26.8458
ltibia 146.091
lfoot -24.8508 35.8368
ltoes -14.4983
135
root 2.03165 7.28108 20.2362 -166.179 -0.155656 -180.705
lowerback 48.26 6.91249 -1.61294
upperback 14.8585 0.840317 2.59556
thorax -3.83377 -2.46072 3.37634
lowerneck -31.3961 1.36386 2.19123
upperneck 19.4716 0.937004 -0.229751
head 11.4684 0.559626 -0.26691
rclavicle -4.17448e-015 2.32081e-014
rhumerus 5.03295 16.9166 -73.5036
rradius 58.5513
rwrist 31.3925
rhand -40.9752 -0.41589
rfingers 7.12502
rthumb -13.9078 -29.9308
lclavicle -4.17448e-015 2.32081e-014
lhumerus 5.12194 -13.4586 76.6468
lradius 58.7032
lwrist -34.5615
lhand -39.3021 7.31505
lfingers 7.12502
lthumb -12.2949 36.9336
rfemur -99.0397 3.9434 28.875
rtibia 144.118
rfoot -43.2453 -29.009
rtoes -22.3019
lfemur -98.6882 13.2445 -26.8585
ltibia 146.898
lfoot -24.9873 36.3577
ltoes -14.5253
136
root 2.02356 7.20312 20.1898 -166.148 -0.136741 -180.7
lowerback 48.2912 6.97235 -1.60993
upperback 14.9305 0.875717 2.62593
thorax -3.76177 -2.46004 3.39136
lowerneck -31.458 1.36544 2.21111
upperneck 19.4417 0.933278 -0.248053
head 11.4676 0.556646 -0.277485
rclavicle -4.37326e-015 -1.43125e-014
rhumerus 5.48672 17.166 -72.8843
rradius 59.8888
rwrist 31.4261
rhand -41.7337 -0.393685
rfingers 7.12502
rthumb -14.6386 -29.857
lclavicle -4.37326e-015 -1.43125e-014
lhumerus 5.58895 -13.4566 76.3453
lradius 59.855
lwrist -34.5188
lhand -40.1157 7.48607
lfingers 7.12502
lthumb -13.0793 37.056
rfemur -99.303 3.76727 29.0603
rtibia 145.001
rfoot -43.4166 -29.1578
rtoes -22.6383
lfemur -98.7779 13.2666 -26.8788
ltibia 147.682
lfoot -25.2161 36.8552
ltoes -14.5338
137
root 2.01582 7.12922 20.1436 -166.12 -0.134638 -180.701
lowerback 48.3186 7.02735 -1.61836
upperback 14.9996 0.902591 2.6716
thorax -3.69268 -2.46441 3.43148
lowerneck -31.5368 1.37401 2.22964
upperneck 19.421 0.946235 -0.291053
head 11.4734 0.557635 -0.294001
rclavicle 1.70955e-014 -2.5842e-015
rhumerus 6.08766 17.4204 -72.1863
rradius 61.1229
rwrist 31.406
rhand -42.4414 -0.31862
rfingers 7.12502
rthumb -15.3204 -29.7311
lclavicle 1.70955e-014 -2.5842e-015
lhumerus 6.15889 -13.3954 76.0163
lradius 60.9342
lwrist -34.6228
lhand -40.7799 7.83019
lfingers 7.12502
lthumb -13.7195 37.3579
rfemur -99.5254 3.5791 29.2578
rtibia 145.837
rfoot -43.6212 -29.3326
rtoes -23.0875
lfemur -98.8168 13.2729 -26.8957
ltibia 148.432
lfoot -25.5407 37.3129
ltoes -14.5322
138
root 2.00827 7.05961 20.0977 -166.09 -0.151422 -180.713
lowerback 48.3439 7.06844 -1.62728
upperback 15.0664 0.913966 2.71657
thorax -3.6249 -2.4754 3.47706
lowerneck -31.672 1.3792 2.23618
upperneck 19.4314 0.95755 -0.331215
head 11.5006 0.557406 -0.307612
rclavicle -4.17448e-015 1.47101e-014
rhumerus 6.83865 17.6601 -71.4267
rradius 62.2434
rwrist 31.3038
rhand -43.0963 -0.184158
rfingers 7.12502
rthumb -15.9511 -29.5473
lclavicle -4.17448e-015 1.47101e-014
lhumerus 6.83323 -13.2845 75.6366
lradius 61.9281
lwrist -34.8531
lhand -41.3482 8.29189
lfingers 7.12502
lthumb -14.2672 37.7818
rfemur -99.7249 3.37412 29.457
rtibia 146.631
rfoot -43.8529 -29.52
rtoes -23.6607
lfemur -98.7983 13.2638 -26.9049
ltibia 149.146
lfoot -25.9681 37.7214
ltoes -14.5383
139
root 2.00095 6.99542 20.0521 -166.067 -0.173152 -180.721
lowerback 48.3859 7.11097 -1.65394
upperback 15.1214 0.921107 2.78214
thorax -3.57348 -2.49019 3.55528
lowerneck -31.8108 1.38595 2.21574
upperneck 19.4462 0.984773 -0.376207
head 11.5302 0.561509 -0.315788
rclavicle -8.54774e-015 -2.62893e-014
rhumerus 7.74682 17.9051 -70.5799
rradius 63.2623
rwrist 31.0848
rhand -43.6226 0.0142226
rfingers 7.12502
rthumb -16.4578 -29.3077
lclavicle -8.54774e-015 -2.62893e-014
lhumerus 7.59423 -13.0725 75.251
lradius 62.8338
lwrist -35.2957
lhand -41.7177 8.92241
lfingers 7.12502
lthumb -14.6232 38.3868
rfemur -99.8732 3.16846 29.671
rtibia 147.358
rfoot -44.0387 -29.805
rtoes -24.3651
lfemur -98.7104 13.2631 -26.8773
ltibia 149.819
lfoot -26.5224 38.0596
ltoes -14.5677
140
root 1.99371 6.93685 20.0069 -166.04 -0.200891 -180.727
lowerback 48.4469 7.13992 -1.65179
upperback 15.1618 0.929152 2.82617
thorax -3.53944 -2.49947 3.59726
lowerneck -31.9097 1.39073 2.22776
upperneck 19.4252 0.994325 -0.417852
head 11.5392 0.560491 -0.331362
rclavicle 6.16232e-015 -1.14301e-015
rhumerus 8.77186 18.0568 -69.708
rradius 64.1857
rwrist 30.8102
rhand -43.9898 0.239827
rfingers 7.12502
rthumb -16.8113 -29.0524
lclavicle 6.16232e-015 -1.14301e-015
lhumerus 8.47113 -12.8747 74.7964
lradius 63.6263
lwrist -35.7378
lhand -42.0202 9.5729
lfingers 7.12502
lthumb -14.9146 39.016
rfemur -99.98 2.95098 29.8934
rtibia 148.043
rfoot -44.2484 -30.075
rtoes -25.012
lfemur -98.5555 13.2747 -26.7995
ltibia 150.455
lfoot -27.3056 38.2631
ltoes -14.5983
141
root 1.98647 6.88369 19.9618 -166.003 -0.231952 -180.731
lowerback 48.5109 7.16304 -1.63835
upperback 15.194 0.939761 2.86345
thorax -3.51469 -2.50468 3.62608
lowerneck -31.9868 1.40112 2.27787
upperneck 19.3718 1.00096 -0.483099
head 11.5324 0.55762 -0.362596
rclavicle 9.54166e-015 -1.23246e-014
rhumerus 9.91611 18.1228 -68.8028
rradius 65.0198
rwrist 30.5378
rhand -44.1892 0.360331
rfingers 7.12502
rthumb -17.0033 -28.9155
lclavicle 9.54166e-015 -1.23246e-014
lhumerus 9.46401 -12.68 74.2943
lradius 64.3099
lwrist -36.0656
lhand -42.2494 10.1767
lfingers 7.12502
lthumb -15.1355 39.6033
rfemur -100.046 2.73635 30.1157
rtibia 148.69
rfoot -44.4763 -30.3199
rtoes -25.5418
lfemur -98.3569 13.2951 -26.6848
ltibia 151.049
lfoot -28.179 38.3849
ltoes -14.6536
142
root 1.97918 6.83577 19.9166 -165.947 -0.264022 -180.727
lowerback 48.5742 7.17502 -1.58919
upperback 15.2228 0.956604 2.87583
thorax -3.49226 -2.50163 3.60917
lowerneck -32.0182 1.4111 2.37512
upperneck 19.2635 0.985169 -0.545702
head 11.4967 0.548388 -0.404698
rclavicle 5.1684e-015 -4.12478e-015
rhumerus 11.1699 18.064 -67.8861
rradius 65.746
rwrist 30.3271
rhand -44.2383 0.355051
rfingers 7.12502
rthumb -17.0506 -28.9167
lclavicle 5.1684e-015 -4.12478e-015
lhumerus 10.6017 -12.5464 73.7154
lradius 64.8912
lwrist -36.1089
lhand -42.3755 10.6963
lfingers 7.12502
lthumb -15.2569 40.1136
rfemur -100.082 2.52459 30.344
rtibia 149.304
rfoot -44.7021 -30.5565
rtoes -25.9532
lfemur -98.1334 13.3244 -26.5359
ltibia 151.597
lfoot -29.0703 38.4559
ltoes -14.7387
143
root 1.97215 6.79368 19.8718 -165.862 -0.301124 -180.705
lowerback 48.6259 7.17567 -1.51431
upperback 15.2465 0.978292 2.8774
thorax -3.47309 -2.49161 3.56685
lowerneck -32.0115 1.42126 2.49344
upperneck 19.129 0.95833 -0.599881
head 11.4445 0.536796 -0.449089
rclavicle 7.35503e-015 1.98785e-016
rhumerus 12.5445 17.9068 -66.9275
rradius 66.3546
rwrist 30.1957
rhand -44.1578 0.147396
rfingers 7.12502
rthumb -16.9731 -29.131
lclavicle 7.35503e-015 1.98785e-016
lhumerus 11.8678 -12.4699 73.0731
lradius 65.3786
lwrist -35.7362
lhand -42.4277 11.085
lfingers 7.12502
lthumb -15.3071 40.4985
rfemur -100.108 2.31705 30.5899
rtibia 149.873
rfoot -44.9098 -30.7665
rtoes -26.2098
lfemur -97.9377 13.3545 -26.3594
ltibia 152.086
lfoot -29.79 38.5403
ltoes -14.8646
144
root 1.96549 6.75769 19.8274 -165.749 -0.354619 -180.671
lowerback 48.68 7.15842 -1.41823
upperback 15.2651 0.991521 2.87459
thorax -3.45862 -2.48268 3.51335
lowerneck -32.0674 1.42887 2.61553
upperneck 19.0228 0.923112 -0.650884
head 11.4135 0.522036 -0.494202
rclavicle 5.1684e-015 4.91992e-015
rhumerus 14.0522 17.6826 -65.9159
rradius 66.8259
rwrist 30.1009
rhand -43.9691 -0.207944
rfingers 7.12502
rthumb -16.7914 -29.5019
lclavicle 5.1684e-015 4.91992e-015
lhumerus 13.2428 -12.4071 72.3845
lradius 65.7741
lwrist -35.0516
lhand -42.4068 11.3757
lfingers 7.12502
lthumb -15.287 40.7908
rfemur -100.119 2.09691 30.8395
rtibia 150.388
rfoot -45.1207 -30.9343
rtoes -26.453
lfemur -97.764 13.3696 -26.168
ltibia 152.512
lfoot -30.3236 38.6566
ltoes -15.0352
